<?xml version="1.0" standalone="no"?>
<!DOCTYPE svg PUBLIC "-//W3C//DTD SVG 20010904//EN"
 "http://www.w3.org/TR/2001/REC-SVG-20010904/DTD/svg10.dtd">
<svg version="1.0" xmlns="http://www.w3.org/2000/svg"
 width="370.000000pt" height="370.000000pt" viewBox="0 0 370.000000 370.000000"
 preserveAspectRatio="xMidYMid meet">
<metadata>
Created by potrace 1.11, written by Peter Selinger 2001-2013
</metadata>
<g transform="translate(0.000000,370.000000) scale(0.100000,-0.100000)"
fill="#000000" stroke="none">
<path d="M1240 3538 c0 -4 -3 -7 -7 -6 -16 3 -49 -17 -75 -44 -14 -15 -24 -28
-21 -28 2 0 -2 -7 -9 -15 -30 -33 -38 -45 -32 -45 4 0 -3 -9 -16 -20 -13 -11
-20 -20 -16 -20 4 0 0 -7 -8 -16 -9 -8 -16 -22 -16 -30 0 -8 -4 -14 -10 -14
-5 0 -10 -5 -10 -10 0 -6 -11 -28 -25 -50 -14 -22 -22 -40 -19 -40 4 0 2 -6
-3 -12 -11 -17 -10 -107 2 -116 13 -9 15 -31 15 -120 0 -65 3 -76 26 -99 23
-23 34 -26 93 -25 239 3 293 1 303 -13 5 -6 8 -5 8 2 0 9 7 10 25 3 18 -7 25
-6 25 3 0 8 3 8 8 2 4 -6 21 -11 37 -12 85 -5 134 -4 178 5 29 6 47 6 47 0 0
-5 5 -6 11 -2 16 9 74 14 85 6 14 -10 41 -57 87 -152 22 -47 41 -87 42 -90 1
-3 7 -18 13 -33 7 -16 12 -34 12 -40 0 -7 7 -21 15 -31 11 -14 12 -23 4 -33
-9 -10 -8 -13 1 -13 7 0 10 -8 7 -20 -3 -11 -1 -20 5 -20 6 0 8 -7 5 -15 -4
-8 -2 -17 4 -20 5 -4 7 -11 3 -16 -3 -5 0 -16 6 -24 10 -12 10 -15 0 -15 -9 0
-10 -4 -2 -13 6 -7 13 -40 16 -73 2 -32 5 -59 6 -59 2 0 9 -59 13 -102 1 -18
5 -33 8 -33 3 0 5 -16 4 -35 0 -19 2 -35 5 -35 3 0 6 -10 7 -22 0 -13 4 -39 7
-58 4 -19 8 -45 8 -57 1 -13 5 -23 9 -23 3 0 5 -10 5 -22 -1 -13 0 -27 3 -33
3 -5 6 -14 7 -20 1 -5 6 -19 10 -29 5 -13 4 -17 -3 -13 -6 4 -3 -8 6 -27 15
-28 18 -60 12 -123 -1 -6 -17 -21 -36 -33 -34 -21 -35 -21 -65 -4 -16 10 -30
21 -30 25 0 4 -10 9 -22 13 -13 3 -36 17 -52 31 -17 14 -40 28 -53 31 -13 4
-23 10 -23 15 0 5 -7 6 -15 3 -8 -4 -15 -1 -15 5 0 6 -3 10 -7 9 -5 -1 -19 4
-33 12 -14 7 -26 13 -27 12 -2 -1 -4 -2 -5 -1 -11 3 -46 11 -58 13 -9 1 -21 6
-29 10 -15 9 -159 10 -206 1 -16 -3 -39 -7 -50 -10 -11 -2 -28 -4 -38 -4 -11
-1 -15 -5 -11 -13 5 -7 2 -9 -8 -5 -9 3 -25 -1 -36 -8 -10 -8 -22 -11 -26 -8
-3 3 -6 1 -6 -6 0 -8 -7 -11 -15 -7 -8 3 -15 2 -15 -3 0 -4 -15 -16 -34 -26
-19 -11 -33 -23 -30 -27 3 -4 1 -8 -5 -8 -6 0 -27 -18 -48 -41 -21 -23 -51
-56 -68 -73 -16 -18 -40 -46 -52 -62 -27 -36 -86 -74 -77 -49 3 8 10 15 14 15
4 0 10 8 14 18 6 20 25 50 44 71 12 12 11 16 -5 24 -10 6 -20 13 -23 16 -12
14 -88 50 -94 44 -3 -3 -6 -1 -6 6 0 7 -6 11 -14 8 -7 -3 -17 -2 -22 3 -5 5
-25 10 -44 11 -19 2 -39 5 -45 8 -17 9 -99 8 -119 -2 -12 -6 -16 -6 -12 1 6
10 -94 -17 -104 -28 -3 -3 -12 -6 -20 -8 -8 -2 -17 -8 -18 -13 -2 -5 -8 -7
-13 -3 -5 3 -9 0 -9 -6 0 -6 -4 -8 -10 -5 -6 3 -10 -1 -10 -9 0 -9 -4 -15 -9
-14 -8 3 -51 -40 -93 -91 -22 -26 -63 -104 -60 -113 1 -5 -2 -8 -6 -8 -9 0
-34 -80 -39 -129 -6 -64 -8 -241 -2 -241 3 0 7 -26 8 -57 2 -66 -4 -56 231
-388 75 -106 139 -186 148 -186 9 -1 26 -3 37 -4 11 -1 67 -5 125 -9 58 -4
134 -9 170 -11 36 -3 109 -7 162 -9 54 -3 102 -8 108 -11 5 -3 10 -1 10 5 0 8
6 8 21 0 15 -8 24 -8 34 0 10 8 14 8 17 -1 3 -9 9 -9 23 -2 12 7 28 8 42 2 13
-5 25 -4 28 2 4 5 10 7 14 5 17 -11 61 -14 61 -5 0 6 5 7 11 3 22 -13 275 2
369 21 14 3 40 8 59 11 19 3 44 9 55 13 12 5 29 7 39 6 9 -2 17 0 17 4 0 4 11
8 24 9 14 1 48 11 77 21 29 11 56 18 61 15 4 -3 8 0 8 5 0 6 3 10 8 9 8 -1 39
9 65 23 10 5 22 7 27 4 6 -4 10 -1 10 4 0 6 6 11 14 11 8 0 47 17 87 37 41 20
80 38 88 39 8 2 17 7 20 13 3 5 19 13 34 16 15 4 27 11 27 17 0 5 5 6 10 3 6
-3 10 -1 10 4 0 6 4 10 8 9 8 -3 151 78 162 91 7 9 42 30 68 41 12 5 22 15 22
21 0 6 6 9 14 6 8 -3 16 -2 18 2 4 11 184 131 197 131 5 0 11 3 13 8 2 4 37
23 78 41 41 19 77 37 80 41 3 3 30 18 60 33 88 43 105 58 109 97 5 49 9 74 12
80 4 9 4 168 0 164 -5 -5 -32 63 -33 84 -1 6 -6 12 -11 12 -6 0 -7 3 -4 7 4 3
0 14 -9 24 -8 9 -16 26 -17 38 -1 11 -7 21 -15 21 -7 0 -11 4 -7 9 3 5 1 12
-5 16 -6 4 -8 11 -5 16 4 5 1 9 -5 9 -7 0 -10 6 -7 14 3 8 -1 17 -10 20 -8 4
-13 13 -9 21 3 8 -1 18 -8 22 -7 5 -35 51 -62 103 -27 52 -52 97 -57 98 -4 2
-5 8 -1 13 3 5 1 9 -5 9 -5 0 -13 10 -17 22 -8 25 -45 81 -56 86 -5 2 -8 10
-8 17 0 7 -3 15 -7 17 -16 7 -102 126 -96 132 3 3 -1 6 -10 6 -10 0 -16 3 -15
8 3 7 -42 71 -69 100 -7 7 -13 17 -13 21 0 4 -16 24 -35 44 -19 20 -32 37 -29
37 3 0 -1 6 -8 14 -7 8 -22 26 -33 42 -11 15 -39 48 -62 73 -24 25 -43 52 -43
59 0 7 -4 11 -8 8 -5 -3 -15 7 -23 21 -8 15 -23 37 -34 49 -40 43 -63 74 -57
74 4 1 -4 10 -17 20 -13 11 -20 20 -16 20 4 0 -4 9 -19 21 -14 11 -26 25 -26
30 0 8 -22 37 -55 73 -6 6 -24 29 -40 51 -16 22 -38 47 -47 56 -10 9 -18 21
-18 28 0 6 -3 11 -7 11 -5 0 -19 17 -33 38 -14 20 -42 52 -62 71 -21 18 -35
37 -32 42 3 5 -2 6 -10 3 -11 -4 -16 0 -16 10 0 9 -4 16 -10 16 -9 0 -40 25
-95 78 -13 12 -27 22 -30 22 -3 0 -15 9 -27 20 -12 10 -25 17 -30 14 -4 -3 -8
-1 -8 4 0 4 -40 28 -90 53 -49 24 -90 48 -90 52 0 5 -7 7 -15 3 -8 -3 -15 -1
-15 4 0 6 -6 10 -14 10 -8 0 -16 5 -18 10 -2 6 -14 12 -27 15 -13 2 -33 12
-44 22 -15 13 -18 14 -13 3 5 -9 2 -8 -7 2 -8 10 -16 16 -19 13 -2 -3 -31 9
-63 25 -32 17 -65 30 -72 30 -7 0 -13 5 -13 11 0 5 -4 7 -10 4 -5 -3 -10 -1
-10 6 0 7 -3 9 -7 6 -3 -4 -11 -3 -17 2 -23 19 -186 35 -186 19z"/>
</g>
</svg>
